<svg width="154" height="36" viewBox="0 0 154 36" fill="none" xmlns="http://www.w3.org/2000/svg">
<g clip-path="url(#clip0_1418_3664)">
<path d="M5.14425 0.521729H0V28.3043H5.14425V0.521729Z" fill="white"/>
<path d="M10.5457 26.6088C9.13107 25.174 8.35944 22.9566 8.35944 19.9566V8.86963H13.5037V20.087C13.5037 22.6957 14.6611 24.0001 16.9761 24.0001C19.291 24.0001 20.4484 22.6957 20.4484 20.087V8.86963H25.5927V19.9566C25.5927 22.9566 24.821 25.3044 23.4064 26.6088C21.9917 28.0435 19.8054 28.6957 16.8475 28.6957C14.1467 28.6957 11.9604 28.0435 10.5457 26.6088Z" fill="white"/>
<path d="M29.065 5.4782C28.422 4.82602 28.1648 4.17385 28.1648 3.26081C28.1648 2.34776 28.422 1.56515 29.065 1.04341C29.7081 0.391241 30.3511 0.130371 31.38 0.130371C32.2802 0.130371 33.0518 0.391241 33.6949 1.04341C34.3379 1.69559 34.5951 2.34776 34.5951 3.26081C34.5951 4.17385 34.3379 4.95646 33.6949 5.4782C33.0518 6.13037 32.4088 6.39124 31.38 6.39124C30.4797 6.39124 29.7081 5.99994 29.065 5.4782ZM28.8078 8.8695H33.9521V28.3043H28.8078V8.8695Z" fill="white"/>
<path d="M35.7526 21.913H41.0254C41.0254 22.5652 41.4112 23.2173 41.9257 23.7391C42.4401 24.2608 43.2117 24.5217 44.2406 24.5217C45.2694 24.5217 45.9125 24.3913 46.4269 23.9999C46.9413 23.7391 47.1985 23.2173 47.1985 22.6956C47.1985 22.0434 46.8127 21.6521 46.0411 21.3913C45.2694 21.1304 44.3692 20.8695 43.3403 20.7391C42.3115 20.6086 41.2826 20.3478 40.2538 20.0869C39.2249 19.826 38.3247 19.1739 37.5531 18.3913C36.7814 17.4782 36.3956 16.4347 36.3956 14.9999C36.3956 13.1739 37.0386 11.7391 38.4533 10.4347C39.868 9.26082 41.6685 8.60864 43.9834 8.60864C46.5555 8.60864 48.4846 9.26082 49.7707 10.5652C51.0567 11.8695 51.6997 13.4347 51.8284 15.1304H46.8127C46.8127 14.4782 46.4269 13.9565 46.0411 13.4347C45.6553 12.913 44.8836 12.7826 43.9834 12.7826C43.2117 12.7826 42.5687 12.913 42.0543 13.3043C41.5399 13.6956 41.4112 14.0869 41.4112 14.6086C41.4112 15.2608 41.7971 15.6521 42.5687 15.913C43.3403 16.1739 44.2406 16.4347 45.2694 16.5652C46.2983 16.6956 47.3271 16.9565 48.356 17.2173C49.3848 17.4782 50.2851 18.1304 51.0567 19.0434C51.8284 19.9565 52.2142 21.1304 52.2142 22.5652C52.2142 24.3913 51.4425 25.826 50.0279 26.9999C48.6132 28.1739 46.5555 28.6956 44.112 28.6956C38.8391 28.6956 36.1384 26.4782 35.7526 21.913Z" fill="white"/>
<path d="M65.9751 36.0001H60.8309V8.86964H65.5893V11.2175C66.8754 9.39138 68.9331 8.3479 71.6338 8.3479C74.3345 8.3479 76.5208 9.26094 78.0641 11.2175C79.6074 13.174 80.379 15.5218 80.379 18.5218C80.379 21.3914 79.6074 23.8696 78.0641 25.8262C76.5208 27.7827 74.3345 28.6957 71.6338 28.6957C70.3477 28.6957 69.1903 28.4349 68.29 27.9131C67.2612 27.3914 66.4895 26.8696 65.9751 26.087V36.0001V36.0001ZM67.1326 22.5653C68.0328 23.6088 69.1903 24.1305 70.605 24.1305C72.0196 24.1305 73.1771 23.6088 74.0773 22.5653C74.9776 21.5218 75.3634 20.2175 75.3634 18.6522C75.3634 17.087 74.9776 15.7827 74.0773 14.7392C73.1771 13.6957 72.0196 13.174 70.605 13.174C69.1903 13.174 68.0328 13.6957 67.1326 14.7392C66.2323 15.7827 65.8465 17.087 65.8465 18.6522C65.8465 20.2175 66.2323 21.5218 67.1326 22.5653Z" fill="white"/>
<path d="M82.8225 5.4782C82.1795 4.82602 81.9222 4.17385 81.9222 3.26081C81.9222 2.34776 82.1795 1.56515 82.8225 1.04341C83.4655 0.391241 84.1086 0.130371 85.1374 0.130371C86.0377 0.130371 86.8093 0.391241 87.4523 1.04341C88.0954 1.69559 88.3526 2.34776 88.3526 3.26081C88.3526 4.17385 88.0954 4.95646 87.4523 5.4782C86.8093 6.13037 86.1663 6.39124 85.1374 6.39124C84.2372 6.39124 83.4655 5.99994 82.8225 5.4782ZM82.5653 8.8695H87.7096V28.3043H82.5653V8.8695Z" fill="white"/>
<path d="M95.8117 11.2175C96.8406 9.39138 98.7697 8.3479 101.47 8.3479C103.785 8.3479 105.457 9.13051 106.743 10.5653C107.901 12.0001 108.544 13.8262 108.544 16.174V28.3044H103.399V16.8262C103.399 14.2175 102.371 13.0436 100.184 13.0436C98.8983 13.0436 97.998 13.4349 97.355 14.2175C96.7119 15.0001 96.3261 16.0436 96.3261 17.3479V28.4349H91.1819V8.86964H95.9403V11.2175H95.8117Z" fill="white"/>
<path d="M117.418 28.3043H112.273V13.0435H109.701V8.86954H112.273V4.04346H117.418V8.86954H120.247V13.0435H117.418V28.3043Z" fill="white"/>
<path d="M122.69 25.8261C120.89 23.8696 119.861 21.5217 119.861 18.6522C119.861 15.7826 120.761 13.4348 122.69 11.4783C124.491 9.52175 126.934 8.47827 130.021 8.47827C132.979 8.47827 135.422 9.52175 137.352 11.4783C139.152 13.4348 140.181 15.7826 140.181 18.6522C140.181 21.5217 139.281 23.8696 137.352 25.8261C135.551 27.7826 133.108 28.8261 130.021 28.8261C127.063 28.6957 124.62 27.7826 122.69 25.8261ZM126.549 22.5652C127.449 23.6087 128.606 24 130.021 24C131.436 24 132.593 23.4783 133.493 22.5652C134.394 21.5217 134.908 20.2174 134.908 18.5217C134.908 16.8261 134.394 15.5217 133.493 14.4783C132.593 13.4348 131.436 13.0435 130.021 13.0435C128.606 13.0435 127.449 13.5652 126.549 14.4783C125.648 15.5217 125.134 16.8261 125.134 18.5217C125.134 20.2174 125.648 21.6522 126.549 22.5652Z" fill="white"/>
<path d="M147.955 27.5217C147.312 26.8696 146.927 26.0869 146.927 25.0435C146.927 24 147.312 23.2174 147.955 22.5652C148.599 21.913 149.499 21.5217 150.528 21.5217C151.556 21.5217 152.328 21.913 152.971 22.5652C153.614 23.2174 154 24.1304 154 25.0435C154 26.0869 153.614 26.8696 152.971 27.5217C152.328 28.1739 151.428 28.5652 150.399 28.5652C149.37 28.5652 148.599 28.1739 147.955 27.5217Z" fill="#5A59FF"/>
</g>
<defs>
<clipPath id="clip0_1418_3664">
<rect width="154" height="36" fill="white"/>
</clipPath>
</defs>
</svg>
