<svg width="93" height="36" viewBox="0 0 93 36" fill="none" xmlns="http://www.w3.org/2000/svg">
<g clip-path="url(#clip0_1418_3646)">
<path d="M4.97512 36.0001H-0.169128V8.86964H4.58931V11.2175C5.87537 9.39138 7.93307 8.3479 10.6338 8.3479C13.3345 8.3479 15.5208 9.26094 17.0641 11.2175C18.6074 13.174 19.379 15.5218 19.379 18.5218C19.379 21.3914 18.6074 23.8696 17.0641 25.8262C15.5208 27.7827 13.3345 28.6957 10.6338 28.6957C9.34774 28.6957 8.19028 28.4349 7.29004 27.9131C6.26119 27.3914 5.48955 26.8696 4.97512 26.087V36.0001V36.0001ZM6.13258 22.5653C7.03283 23.6088 8.19028 24.1305 9.60495 24.1305C11.0196 24.1305 12.1771 23.6088 13.0773 22.5653C13.9776 21.5218 14.3634 20.2175 14.3634 18.6522C14.3634 17.087 13.9776 15.7827 13.0773 14.7392C12.1771 13.6957 11.0196 13.174 9.60495 13.174C8.19028 13.174 7.03283 13.6957 6.13258 14.7392C5.23234 15.7827 4.84652 17.087 4.84652 18.6522C4.84652 20.2175 5.23234 21.5218 6.13258 22.5653Z" fill="white"/>
<path d="M21.8225 5.4782C21.1795 4.82602 20.9222 4.17385 20.9222 3.26081C20.9222 2.34776 21.1795 1.56515 21.8225 1.04341C22.4655 0.391241 23.1086 0.130371 24.1374 0.130371C25.0377 0.130371 25.8093 0.391241 26.4523 1.04341C27.0954 1.69559 27.3526 2.34776 27.3526 3.26081C27.3526 4.17385 27.0954 4.95646 26.4523 5.4782C25.8093 6.13037 25.1663 6.39124 24.1374 6.39124C23.2372 6.39124 22.4655 5.99994 21.8225 5.4782ZM21.5653 8.8695H26.7096V28.3043H21.5653V8.8695Z" fill="white"/>
<path d="M34.8117 11.2175C35.8406 9.39138 37.7697 8.3479 40.4704 8.3479C42.7853 8.3479 44.4572 9.13051 45.7432 10.5653C46.9007 12.0001 47.5437 13.8262 47.5437 16.174V28.3044H42.3995V16.8262C42.3995 14.2175 41.3706 13.0436 39.1843 13.0436C37.8983 13.0436 36.998 13.4349 36.355 14.2175C35.7119 15.0001 35.3261 16.0436 35.3261 17.3479V28.4349H30.1819V8.86964H34.9403V11.2175H34.8117Z" fill="white"/>
<path d="M56.4176 28.3043H51.2733V13.0435H48.7012V8.86954H51.2733V4.04346H56.4176V8.86954H59.2469V13.0435H56.4176V28.3043Z" fill="white"/>
<path d="M61.6904 25.8261C59.8899 23.8696 58.8611 21.5217 58.8611 18.6522C58.8611 15.7826 59.7613 13.4348 61.6904 11.4783C63.4909 9.52175 65.9344 8.47827 69.021 8.47827C71.9789 8.47827 74.4225 9.52175 76.3516 11.4783C78.1521 13.4348 79.1809 15.7826 79.1809 18.6522C79.1809 21.5217 78.2807 23.8696 76.3516 25.8261C74.5511 27.7826 72.1075 28.8261 69.021 28.8261C66.063 28.6957 63.6195 27.7826 61.6904 25.8261ZM65.5486 22.5652C66.4489 23.6087 67.6063 24 69.021 24C70.4357 24 71.5931 23.4783 72.4934 22.5652C73.3936 21.5217 73.908 20.2174 73.908 18.5217C73.908 16.8261 73.3936 15.5217 72.4934 14.4783C71.5931 13.4348 70.4357 13.0435 69.021 13.0435C67.6063 13.0435 66.4489 13.5652 65.5486 14.4783C64.6484 15.5217 64.134 16.8261 64.134 18.5217C64.134 20.2174 64.6484 21.6522 65.5486 22.5652Z" fill="white"/>
<path d="M86.9555 27.5217C86.3125 26.8696 85.9266 26.0869 85.9266 25.0435C85.9266 24 86.3125 23.2174 86.9555 22.5652C87.5985 21.913 88.4988 21.5217 89.5276 21.5217C90.5565 21.5217 91.3281 21.913 91.9711 22.5652C92.6142 23.2174 93 24.1304 93 25.0435C93 26.0869 92.6142 26.8696 91.9711 27.5217C91.3281 28.1739 90.4279 28.5652 89.399 28.5652C88.3702 28.5652 87.5985 28.1739 86.9555 27.5217Z" fill="#5A59FF"/>
</g>
<defs>
<clipPath id="clip0_1418_3646">
<rect width="93" height="36" fill="white"/>
</clipPath>
</defs>
</svg>
