<svg width="72" height="73" viewBox="0 0 72 73" fill="none" xmlns="http://www.w3.org/2000/svg">
<path d="M71.561 32.1034C71.561 28.3568 70.5712 24.6416 68.4945 21.512C62.5852 12.5892 50.8141 9.31859 40.4149 14.4929C38.9405 15.2189 37.3138 15.5906 35.6668 15.5781C34.0199 15.5655 32.3992 15.1688 30.9363 14.4204C18.2664 7.99663 3.41889 13.6566 0.265275 27.6283C0.0890638 28.4035 9.73539e-05 29.1956 0 29.9902V54.2497C0.00154879 56.1393 0.759116 57.9515 2.10715 59.2903C3.45518 60.629 5.28406 61.3854 7.19411 61.3942C9.10417 61.3854 10.9331 60.629 12.2811 59.2903C13.6291 57.9515 14.3867 56.1393 14.3882 54.2497V34.2283C14.6971 30.9812 16.4847 28.6408 20.1035 28.2765C24.2153 27.8751 26.5493 30.2624 27.3986 33.9972C27.6251 35.0678 27.751 36.1567 27.7747 37.2502V43.5134C27.7863 45.4684 28.5552 47.3446 29.923 48.7556C31.2909 50.1666 33.1536 51.005 35.1276 51.0981C37.1015 51.1912 39.0364 50.532 40.5338 49.2562C42.0312 47.9803 42.977 46.185 43.1766 44.24C43.1992 44.0843 43.2118 43.9273 43.2142 43.77V30.141C43.1987 29.2429 43.3642 28.3507 43.7009 27.5164C44.0377 26.6822 44.539 25.9227 45.1755 25.2821C45.8121 24.6416 46.5712 24.1328 47.4086 23.7855C48.246 23.4382 49.1449 23.2594 50.0529 23.2594C50.9609 23.2594 51.8598 23.4382 52.6972 23.7855C53.5346 24.1328 54.2938 24.6416 54.9303 25.2821C55.5669 25.9227 56.0682 26.6822 56.4049 27.5164C56.7417 28.3507 56.9071 29.2429 56.8917 30.141V54.2282C56.8917 54.3712 56.9016 54.5122 56.9194 54.6512C57.0513 56.4835 57.8817 58.1979 59.2427 59.4476C60.6037 60.6973 62.3936 61.389 64.2505 61.3827C66.1073 61.3765 67.8925 60.6729 69.2449 59.4141C70.5973 58.1553 71.4159 56.4354 71.5353 54.6022C71.5528 54.4527 71.5614 54.3023 71.561 54.1518V32.1034Z" fill="#107EFF"/>
<path d="M25.3556 53.5408C23.6828 53.5408 22.8077 54.8549 22.8077 56.1534C22.8077 57.4518 23.6828 58.762 25.3556 58.762C27.0284 58.762 27.9133 57.444 27.9133 56.1455C27.9133 54.8471 27.0284 53.5408 25.3556 53.5408Z" fill="#107EFF"/>
<path d="M46.2055 53.5408C44.5326 53.5408 43.6576 54.8549 43.6576 56.1534C43.6576 57.4518 44.5326 58.762 46.2055 58.762C47.8783 58.762 48.7533 57.4479 48.7533 56.1494C48.7533 54.851 47.8783 53.5408 46.2055 53.5408Z" fill="#107EFF"/>
<path d="M35.7805 58.294C34.2482 58.294 33.0605 59.0245 33.0605 59.9606C33.0605 60.8968 34.2601 61.6253 35.7884 61.6253C37.3167 61.6253 38.5164 60.8948 38.5164 59.9606C38.5164 59.0264 37.3108 58.294 35.7805 58.294Z" fill="#107EFF"/>
</svg>
