<svg width="36" height="36" viewBox="0 0 36 36" fill="none" xmlns="http://www.w3.org/2000/svg">
<path d="M8.97512 32.0001H3.83087V4.86964H8.58931V7.21747C9.87537 5.39138 11.9331 4.3479 14.6338 4.3479C17.3345 4.3479 19.5208 5.26094 21.0641 7.21747C22.6074 9.17399 23.379 11.5218 23.379 14.5218C23.379 17.3914 22.6074 19.8696 21.0641 21.8262C19.5208 23.7827 17.3345 24.6957 14.6338 24.6957C13.3477 24.6957 12.1903 24.4349 11.29 23.9131C10.2612 23.3914 9.48955 22.8696 8.97512 22.087V32.0001V32.0001ZM10.1326 18.5653C11.0328 19.6088 12.1903 20.1305 13.605 20.1305C15.0196 20.1305 16.1771 19.6088 17.0773 18.5653C17.9776 17.5218 18.3634 16.2175 18.3634 14.6522C18.3634 13.087 17.9776 11.7827 17.0773 10.7392C16.1771 9.69573 15.0196 9.17399 13.605 9.17399C12.1903 9.17399 11.0328 9.69573 10.1326 10.7392C9.23234 11.7827 8.84652 13.087 8.84652 14.6522C8.84652 16.2175 9.23234 17.5218 10.1326 18.5653Z" fill="white"/>
<path d="M27.0289 23.5217C26.3858 22.8696 26 22.0869 26 21.0435C26 20 26.3858 19.2174 27.0289 18.5652C27.6719 17.913 28.5721 17.5217 29.601 17.5217C30.6298 17.5217 31.4015 17.913 32.0445 18.5652C32.6875 19.2174 33.0733 20.1304 33.0733 21.0435C33.0733 22.0869 32.6875 22.8696 32.0445 23.5217C31.4015 24.1739 30.5012 24.5652 29.4724 24.5652C28.4435 24.5652 27.6719 24.1739 27.0289 23.5217Z" fill="#5A59FF"/>
</svg>
